<?xml version="1.0" encoding="UTF-8" standalone="no"?>
<svg width="60px" height="60px" viewBox="0 0 60 60" version="1.1" xmlns="http://www.w3.org/2000/svg" xmlns:xlink="http://www.w3.org/1999/xlink" xmlns:sketch="http://www.bohemiancoding.com/sketch/ns">
    <!-- Generator: Sketch 3.2.2 (9983) - http://www.bohemiancoding.com/sketch -->
    <title>Childrens</title>
    <desc>Created with Sketch.</desc>
    <defs></defs>
    <g id="stroked" stroke="none" stroke-width="1" fill="none" fill-rule="evenodd" sketch:type="MSPage">
        <g id="Medical" sketch:type="MSLayerGroup" transform="translate(-740.000000, 3.000000)" stroke-linecap="round" stroke="#467fd7" stroke-width="2">
            <g id="Childrens" transform="translate(742.000000, 2.000000)" sketch:type="MSShapeGroup">
                <rect id="Rectangle-139" x="3" y="20" width="10" height="32"></rect>
                <rect id="Rectangle-139" x="23" y="20" width="10" height="32"></rect>
                <rect id="Rectangle-139" x="43" y="20" width="10" height="32"></rect>
                <circle id="Oval-237" cx="8" cy="8" r="8"></circle>
                <circle id="Oval-237" cx="28" cy="8" r="8"></circle>
                <circle id="Oval-237" cx="48" cy="8" r="8"></circle>
                <path d="M4,8 C4,10.209139 5.790861,12 8,12 C10.209139,12 12,10.209139 12,8" id="Oval-238"></path>
                <path d="M24,8 C24,10.209139 25.790861,12 28,12 C30.209139,12 32,10.209139 32,8" id="Oval-238"></path>
                <path d="M44,8 C44,10.209139 45.790861,12 48,12 C50.209139,12 52,10.209139 52,8" id="Oval-238"></path>
                <path d="M6,5 L6,6" id="Line"></path>
                <path d="M26,5 L26,6" id="Line"></path>
                <path d="M46,5 L46,6" id="Line"></path>
                <path d="M10,5 L10,6" id="Line-71"></path>
                <path d="M30,5 L30,6" id="Line-71"></path>
                <path d="M50,5 L50,6" id="Line-71"></path>
            </g>
        </g>
    </g>
</svg>